#!OML:ASF E:/inclinewalkrobotboard/Project1/Captureday1/Session1/subject1.ASF
:FULLY-SPECIFIED
:DEGREES
301
root 0 0 0 -0.383381824110394 -2.0358353483223826 -3.889699193121611
lowerback 16.553418844191846 1.0900133726552457 -0.12777622782600329
upperback 0.64117583838881 1.4263456681136968 0.3219602030476282
thorax -8.664347994726036 0.6748075382697076 0.04954485736885472
lowerneck -7.474838786658787 -3.253444473973543 1.342147448135374
upperneck -6.229106431253822 -4.215019609577008 1.7011659341307221
head -0.8101838062381574 -2.1901600473065246 0.22663513472972308
rclavicle -3.8052998794184276E-16 1.907846561343356E-17
rhumerus 12.11550626119017 0.5519439233521464 -39.40964830354718
rradius 118.88331547998564
rwrist -30.847948014475367
rhand -11.656609471078415 -36.70369297418597
rfingers 7.125019999999965
rthumb 14.425470518211178 -66.11503578469724
lclavicle -3.8802787395559737E-16 -4.493894177089814E-16
lhumerus -43.51310205561665 -0.38071160083661026 83.17820531824947
lradius 45.50379805376162
lwrist 1.8507438677478134
lhand -15.393569772553644 -12.808255280955814
lfingers 7.125019999999938
lthumb 10.738635047021624 16.35396397579143
rfemur -2.708556329431107 1.0070975304250236 5.414635287594477
rtibia 8.1109471772558
rfoot -1.5257047469189438 -1.3203575268526255
rtoes 0.7755124025898268
lfemur -6.479311132730726 -3.5950136262293286 -12.160473093055304
ltibia 27.335857564774493
lfoot -19.405318305690226 8.090486359149729
ltoes -43.70557905937383
302
root 0 0 0 -0.38333672143578323 -2.0358993584774705 -3.889786968888363
lowerback 16.55401666997262 1.0898832749492253 -0.12787502338045953
upperback 0.6407245439427012 1.4261539057405521 0.3218850619357315
thorax -8.665135377135432 0.6747070910424166 0.04951551603141513
lowerneck -7.4749892932936985 -3.253329716419159 1.3426222873427887
upperneck -6.233212814467212 -4.214780008144077 1.7007022428001874
head -0.8115257400367906 -2.1901054469350507 0.22647379789131797
rclavicle -3.8054020533145473E-16 1.9099550826546454E-17
rhumerus 12.115842121317982 0.5524831220941735 -39.40921257252715
rradius 118.88465694254735
rwrist -30.848532469518105
rhand -11.65638566580274 -36.70507394868059
rfingers 7.125019999999965
rthumb 14.425681748635851 -66.11637388852984
lclavicle -3.878318293507732E-16 -4.492496220752513E-16
lhumerus -43.51481410788732 -0.3806226851982458 83.17847581581127
lradius 45.50611360152353
lwrist 1.849808973751925
lhand -15.391652742255744 -12.814302527111323
lfingers 7.125019999999938
lthumb 10.740458524873123 16.34815154354095
rfemur -2.7078840719985244 1.0068388527795757 5.41327372074997
rtibia 8.108949684000182
rfoot -1.5253117024159533 -1.3200178859684688
rtoes 0.7753128535018319
lfemur -6.479034014745687 -3.5952076067404946 -12.15988743479055
ltibia 27.335303864048807
lfoot -19.406400126276726 8.091424805773967
ltoes -43.70870559935603
303
root 0 0 0 -0.3832917576267315 -2.0359631162589835 -3.8898746916244153
lowerback 16.55461140059557 1.089753997573948 -0.12797314379142377
upperback 0.6402746216642947 1.425963351197266 0.32181010527762444
thorax -8.665919631101671 0.674607251636701 0.049485960095529746
lowerneck -7.475139628477472 -3.253215631010279 1.3430949692055076
upperneck -6.237301714449085 -4.214541828976645 1.700240967580251
head -0.8128618969846118 -2.1900512108137016 0.22631327983794303
rclavicle -3.805502536588552E-16 1.912059186237038E-17
rhumerus 12.11617464926799 0.553022315058346 -39.408779525391836
rradius 118.88599380880684
rwrist -30.849115101367975
rhand -11.656161667079067 -36.7064539886448
rfingers 7.125019999999965
rthumb 14.425893163051098 -66.11771107049279
lclavicle -3.8763619388720383E-16 -4.491100698063658E-16
lhumerus -43.51652295225868 -0.3805339755633631 83.17874579064362
lradius 45.508424836420694
lwrist 1.8488758779239227
lhand -15.389739348436851 -12.82033840897588
lfingers 7.125019999999939
lthumb 10.742278555682155 16.342350061212493
rfemur -2.707212957130408 1.0065805970807065 5.411914401627234
rtibia 8.10695553915937
rfoot -1.5249192938704117 -1.3196788153142607
rtoes 0.7751136244154817
lfemur -6.478757318689228 -3.5954012668992235 -12.159302793759416
ltibia 27.3347510799777
lfoot -19.40748011010563 8.09236164484069
ltoes -43.711826778966014
304
root 0 0 0 -0.3832469266437082 -2.036026629523789 -3.8899623714187914
lowerback 16.55520312141385 1.089625522617304 -0.128070603646949
upperback 0.6398260161040541 1.425773977949205 0.32173532339671296
thorax -8.666700860156507 0.6745080062681745 0.04945618699904675
lowerneck -7.475289806678726 -3.253102202632453 1.3435655569788127
upperneck -6.241373679799498 -4.214305039675537 1.6997820464423732
head -0.8141924572374721 -2.1899973317114716 0.2261535590538311
rclavicle -3.80560135134371E-16 1.914159127317423E-17
rhumerus 12.116503906521366 0.5535615597942627 -39.40834909505392
rradius 118.88732625686993
rwrist -30.849695986524953
rhand -11.655937452599442 -36.707833247921464
rfingers 7.125019999999965
rthumb 14.4261047825074 -66.11904747976735
lclavicle -3.8744094467268225E-16 -4.489707447897192E-16
lhumerus -43.51822878920433 -0.38044546174644656 83.17901527423085
lradius 45.510732030231196
lwrist 1.847944471221694
lhand -15.387829366477968 -12.826363634493413
lfingers 7.125019999999939
lthumb 10.744095352956545 16.336558848140804
rfemur -2.706542906819535 1.0063227334171931 5.410557172572107
rtibia 8.104964510974169
rfoot -1.5245274759047263 -1.3193402755334178
rtoes 0.774914692214024
lfemur -6.478481012154615 -3.5955946294867953 -12.158719100937052
ltibia 27.334199147467658
lfoot -19.408558384427803 8.093296986808317
ltoes -43.71494296625461
